{"title":"Impractical Jokers S03E03 Field Of Screams HDTV x264-CRiMSON","uid":9489444,"size":243335931,"categoryP":"video","categoryS":"tv_shows","magnet":"?xt=urn:btih:eb5cea02f26372e9a1c1d4d44bf892b2689c701a&amp;dn=Impractical+Jokers+S03E03+Field+Of+Screams+HDTV+x264-CRiMSON&amp;tr=udp%3A%2F%2Ftracker.openbittorrent.com%3A80&amp;tr=udp%3A%2F%2Fopen.demonii.com%3A1337&amp;tr=udp%3A%2F%2Ftracker.coppersurfer.tk%3A6969&amp;tr=udp%3A%2F%2Fexodus.desync.com%3A6969","seeders":5,"leechers":1,"uploader":"fiddy01604","files":1,"time":1389969326,"description":"\nScreenshots\n\n\n\nMedia info\n\nFormat : MPEG-4\nFormat profile : Base Media\nCodec ID : isom\nFile size : 232 MiB\nDuration : 20mn 40s\nOverall bit rate mode : Variable\nOverall bit rate : 1 569 Kbps\nEncoded date : UTC 2014-01-17 07:23:35\nTagged date : UTC 2014-01-17 07:23:35\n\nVideo\nID : 1\nFormat : AVC\nFormat/Info : Advanced Video Codec\nFormat profile : &lt;a class=&quot;__cf_email__&quot; href=&quot;/cdn-cgi/l/email-protection&quot; data-cfemail=&quot;a3ebcac4cbe3ef908d92&quot;&gt;[email&amp;#160;protected]&lt;/a&gt;&lt;script cf-hash='f9e31' type=&quot;text/javascript&quot;&gt;\n/* &lt;![CDATA[ */!function(){try{var t=&quot;currentScript&quot;in document?document.currentScript:function(){for(var t=document.getElementsByTagName(&quot;script&quot;),e=t.length;e--;)if(t[e].getAttribute(&quot;cf-hash&quot;))return t[e]}();if(t&amp;&amp;t.previousSibling){var e,r,n,i,c=t.previousSibling,a=c.getAttribute(&quot;data-cfemail&quot;);if(a){for(e=&quot;&quot;,r=parseInt(a.substr(0,2),16),n=2;a.length-n;n+=2)i=parseInt(a.substr(n,2),16)^r,e+=String.fromCharCode(i);e=document.createTextNode(e),c.parentNode.replaceChild(e,c)}}}catch(u){}}();/* ]]&gt; */&lt;/script&gt;\nFormat settings, CABAC : Yes\nFormat settings, ReFrames : 5 frames\nCodec ID : avc1\nCodec ID/Info : Advanced Video Coding\nDuration : 20mn 40s\nBit rate : 1 449 Kbps\nMaximum bit rate : 4 604 Kbps\nWidth : 720 pixels\nHeight : 406 pixels\nDisplay aspect ratio : 16:9\nFrame rate mode : Constant\nFrame rate : 29.970 fps\nColor space : YUV\nChroma subsampling : 4:2:0\nBit depth : 8 bits\nScan type : Progressive\nBits/(Pixel*Frame) : 0.165\nStream size : 214 MiB (92%)\nWriting library : x264 core 140 r2377 1ca7bb9\nEncoding settings : cabac=1 / ref=5 / deblock=1:-1:-1 / analyse=0x3:0x113 / me=umh / subme=8 / psy=1 / psy_rd=1.00:0.15 / mixed_ref=1 / me_range=16 / chroma_me=1 / trellis=1 / 8x8dct=1 / cqm=0 / deadzone=21,11 / fast_pskip=1 / chroma_qp_offset=-3 / threads=12 / lookahead_threads=2 / sliced_threads=0 / nr=0 / decimate=1 / interlaced=0 / bluray_compat=0 / constrained_intra=0 / bframes=3 / b_pyramid=2 / b_adapt=2 / b_bias=0 / direct=3 / weightb=1 / open_gop=0 / weightp=2 / keyint=300 / keyint_min=29 / scenecut=40 / intra_refresh=0 / rc_lookahead=50 / rc=crf / mbtree=1 / crf=21.0 / qcomp=0.60 / qpmin=0 / qpmax=69 / qpstep=4 / vbv_maxrate=17500 / vbv_bufsize=583 / crf_max=0.0 / nal_hrd=none / filler=0 / ip_ratio=1.40 / aq=1:1.00\nEncoded date : UTC 2014-01-17 07:21:56\nTagged date : UTC 2014-01-17 07:23:37\nColor primaries : BT.709\nTransfer characteristics : BT.709\nMatrix coefficients : BT.709\n\nAudio\nID : 2\nFormat : AAC\nFormat/Info : Advanced Audio Codec\nFormat profile : LC\nCodec ID : 40\nDuration : 20mn 40s\nBit rate mode : Variable\nBit rate : 115 Kbps\nMaximum bit rate : 144 Kbps\nChannel count : 2 channels\nChannel positions : Front: L R\nSampling rate : 48.0 KHz\nCompression mode : Lossy\nStream size : 17.0 MiB (7%)\nEncoded date : UTC 2014-01-17 07:22:20\nTagged date : UTC 2014-01-17 07:23:37\n\n\n","torrent":{"xt":"urn:btih:eb5cea02f26372e9a1c1d4d44bf892b2689c701a","amp;dn":"Impractical+Jokers+S03E03+Field+Of+Screams+HDTV+x264-CRiMSON","amp;tr":["udp%3A%2F%2Ftracker.openbittorrent.com%3A80","udp%3A%2F%2Fopen.demonii.com%3A1337","udp%3A%2F%2Ftracker.coppersurfer.tk%3A6969","udp%3A%2F%2Fexodus.desync.com%3A6969"],"infoHash":"eb5cea02f26372e9a1c1d4d44bf892b2689c701a","infoHashBuffer":{"type":"Buffer","data":[235,92,234,2,242,99,114,233,161,193,212,212,75,248,146,178,104,156,112,26]},"announce":[],"urlList":[]}}